<svg xmlns="http://www.w3.org/2000/svg" viewBox="0 0 48 48" fill="none">
  <path d="M12 16h10a2 2 0 012 2v12a2 2 0 01-2 2H12a2 2 0 01-2-2V18a2 2 0 012-2z" stroke="#43b97f" stroke-width="2" fill="none"/>
  <path d="M26 16h10a2 2 0 012 2v12a2 2 0 01-2 2H26a2 2 0 01-2-2V18a2 2 0 012-2z" stroke="#43b97f" stroke-width="2" fill="none"/>
  <path d="M20 24h8" stroke="#43b97f" stroke-width="2" stroke-linecap="round"/>
  <path d="M22 22l2 2-2 2" stroke="#43b97f" stroke-width="2" stroke-linecap="round" stroke-linejoin="round"/>
</svg>
